<svg width="42" height="42" xmlns="http://www.w3.org/2000/svg"><g fill="#FFF"><path d="M21.77 14.419C21.77 11.515 20.04 7 16.703 7c-1.049 0-2.173.524-2.818 1.33-.685.849-.884 1.934-.884 2.986 0 2.7 1.568 7.174 5.03 7.174 1.005 0 2.088-.48 2.735-1.127.925-.93 1.006-2.218 1.006-2.944zM19.608 25.04c-.32-.04-.522-.04-.924-.04-.363 0-2.536.08-4.225.648-.885.32-3.459 1.289-3.459 4.151 0 2.864 2.776 4.922 7.08 4.922 3.864 0 5.917-1.859 5.917-4.355 0-2.063-1.328-3.148-4.389-5.326z"/><path d="M20.946 0C9.378 0 0 9.378 0 20.946c0 11.569 9.378 20.947 20.946 20.947 11.569 0 20.947-9.378 20.947-20.947C41.893 9.378 32.515 0 20.946 0zm-4.88 36.405c-5.835 0-8.65-2.78-8.65-5.766 0-1.451.723-3.506 3.098-4.918 2.493-1.533 5.875-1.733 7.687-1.858-.566-.725-1.207-1.49-1.207-2.74 0-.685.201-1.089.4-1.573-.443.041-.884.08-1.287.08-4.263 0-6.677-3.187-6.677-6.331 0-1.853.844-3.91 2.573-5.403 2.295-1.895 5.43-2.409 7.605-2.409h7.928l-2.617 1.644h-2.492c.925.765 2.853 2.378 2.853 5.444 0 2.982-1.688 4.397-3.377 5.726-.524.523-1.128 1.088-1.128 1.976 0 .885.605 1.368 1.046 1.734l1.45 1.127c1.77 1.49 3.38 2.862 3.38 5.647 0 3.792-3.665 7.62-10.584 7.62zm17.365-15.951v4.056H31.44v-4.056h-4.026V18.44h4.026v-4.032h1.99v4.032h4.046v2.013H33.43z"/></g></svg>