<svg width="34" height="34" xmlns="http://www.w3.org/2000/svg"><g transform="translate(1 1)" fill="none" fill-rule="evenodd"><path d="M12 10v12m9-1V9" stroke="#878EA0" stroke-linecap="round" stroke-linejoin="round" stroke-width="2"/><path d="M20.998 22.625l2.598-4.5a.75.75 0 0 0-.65-1.125H17.75a.75.75 0 0 0-.65 1.125l2.599 4.5a.75.75 0 0 0 1.299 0zm-9-14.25l2.598 4.5a.75.75 0 0 1-.65 1.125H8.75a.75.75 0 0 1-.65-1.125l2.599-4.5a.75.75 0 0 1 1.299 0z" fill="#878EA0"/><circle stroke="#B7BECE" cx="16" cy="16" r="16"/></g></svg>