<svg width="125" height="54" xmlns="http://www.w3.org/2000/svg" xmlns:xlink="http://www.w3.org/1999/xlink"><defs><path d="M2.874 14.143A33.95 33.95 0 0 1 14.317.087a5.64 5.64 0 0 1 1.866.67l18.295 10.495a5.548 5.548 0 0 1 2.8 4.809v21.021a5.548 5.548 0 0 1-2.8 4.81l-2.837 1.627c-4.712.71-9.446-.125-14.202-2.506 1.623-.503 2.986-1.289 4.09-2.358 2.083-2.019 3.125-4.944 3.125-8.775V14.143h-7.026v15.15c0 1.954-.44 3.458-1.32 4.513-.88 1.054-2.148 1.581-3.804 1.581-1.657 0-2.925-.527-3.805-1.581-.88-1.055-1.32-2.559-1.32-4.513v-15.15H2.874zm23.407 32.45l-12.62 7.24C5.443 47.716 0 38.344 0 27.928c0-.235.002-.469.007-.702 1.933 4.763 5.04 8.849 9.32 12.257 5.205 4.144 10.856 6.515 16.954 7.112z" id="a"/></defs><g fill="none" fill-rule="evenodd"><path d="M13.874 14.143A33.95 33.95 0 0 1 25.317.087a5.64 5.64 0 0 1 1.866.67l18.295 10.495a5.548 5.548 0 0 1 2.8 4.809v21.021a5.548 5.548 0 0 1-2.8 4.81l-2.837 1.627c-4.712.71-9.446-.125-14.202-2.506 1.623-.503 2.986-1.289 4.09-2.358 2.083-2.019 3.125-4.944 3.125-8.775V14.143h-7.026v15.15c0 1.954-.44 3.458-1.32 4.513-.88 1.054-2.148 1.581-3.804 1.581-1.657 0-2.925-.527-3.805-1.581-.88-1.055-1.32-2.559-1.32-4.513v-15.15h-4.505zm23.407 32.45l-12.62 7.24C16.443 47.716 11 38.344 11 27.928c0-.235.002-.469.007-.702 1.933 4.763 5.04 8.849 9.32 12.257 5.205 4.144 10.856 6.515 16.954 7.112z" fill="#FFF" fill-rule="nonzero"/><g transform="translate(11)"><mask id="b" fill="#fff"><use xlink:href="#a"/></mask><path d="M23.123 67.714c18.887 0 34.199-15.542 34.199-34.714 0-19.172-15.312-34.714-34.199-34.714-12.967 0-30.773 5.596-36.571 16.392C-19.247 25.474-11.076 26.99-11.076 33c0 19.172 15.312 34.714 34.199 34.714z" mask="url(#b)"/></g><path d="M15.398 50.251L2.736 42.685C1.043 41.673 0 39.806 0 37.787V16.376c0-2.02 1.043-3.886 2.736-4.898L20.203 1.04C12.269 7.344 7.138 17.379 7.138 28.68c0 8.16 3.149 15.693 8.26 21.571zM68.765 32c-.822 0-1.534-.124-2.138-.372-.604-.247-1.1-.587-1.486-1.017a4.13 4.13 0 0 1-.86-1.531A6.287 6.287 0 0 1 64 27.168V19.47h1.757v7.504c0 1.228.278 2.118.834 2.673.555.555 1.28.832 2.174.832a3.51 3.51 0 0 0 1.223-.204c.368-.135.685-.345.95-.628.267-.283.472-.646.617-1.088.145-.443.217-.971.217-1.585V19.47h1.758v7.7c0 .684-.094 1.32-.281 1.91a4.07 4.07 0 0 1-.87 1.532c-.392.43-.888.77-1.485 1.017-.598.248-1.308.372-2.13.372zm7.681-9.204c.387-.094.9-.194 1.54-.3.64-.107 1.377-.16 2.21-.16.75 0 1.371.104 1.867.31.495.207.89.496 1.186.867.296.372.505.817.625 1.337a7.56 7.56 0 0 1 .182 1.716v5.169H82.37V26.92c0-.566-.04-1.05-.118-1.451-.079-.401-.208-.726-.39-.973a1.538 1.538 0 0 0-.724-.54c-.302-.112-.677-.168-1.124-.168-.18 0-.368.006-.561.017-.193.012-.378.027-.553.045a7.096 7.096 0 0 0-.47.062c-.14.023-.24.04-.3.053v7.77h-1.685v-8.939zm12.084 8.939h-1.684V22.53h1.684v9.204zm-.851-10.868c-.302 0-.559-.097-.77-.292-.211-.194-.317-.457-.317-.787s.106-.593.317-.788c.211-.195.468-.292.77-.292s.559.097.77.292c.211.195.317.457.317.788 0 .33-.106.593-.317.787a1.095 1.095 0 0 1-.77.292zm7.845 11.08c-.761 0-1.429-.118-2.002-.354a4.029 4.029 0 0 1-1.45-.991 4.091 4.091 0 0 1-.878-1.514 6.143 6.143 0 0 1-.29-1.938c0-.708.105-1.356.317-1.946.211-.59.51-1.1.897-1.531a4.02 4.02 0 0 1 1.422-1.01 4.693 4.693 0 0 1 1.875-.362c.423 0 .845.035 1.268.106.423.07.827.183 1.214.336l-.38 1.399a4.12 4.12 0 0 0-.88-.284 5.076 5.076 0 0 0-1.059-.106c-.942 0-1.664.29-2.165.867-.501.579-.752 1.422-.752 2.531 0 .496.057.95.172 1.363.115.413.296.767.544 1.062.247.295.564.522.95.682.387.159.858.239 1.414.239.447 0 .852-.042 1.214-.124.362-.083.646-.171.851-.266l.236 1.38a1.791 1.791 0 0 1-.417.169 5.87 5.87 0 0 1-.616.141c-.23.042-.474.077-.734.107s-.51.044-.751.044zm7.518-1.398c.399 0 .752-.01 1.06-.027a4.73 4.73 0 0 0 .77-.097V27.68c-.12-.059-.317-.109-.589-.15a6.701 6.701 0 0 0-.987-.062c-.254 0-.523.018-.806.053-.284.036-.544.11-.78.221a1.662 1.662 0 0 0-.588.46c-.157.195-.236.452-.236.77 0 .59.193 1 .58 1.23.386.23.912.346 1.576.346zm-.145-8.248c.677 0 1.247.085 1.712.257.465.17.84.412 1.124.725.283.313.486.685.606 1.115.121.43.182.906.182 1.425v5.752l-.607.098c-.26.04-.553.08-.879.115-.326.035-.68.067-1.06.097s-.758.044-1.132.044c-.532 0-1.02-.053-1.468-.16a3.32 3.32 0 0 1-1.16-.504 2.322 2.322 0 0 1-.76-.911c-.181-.378-.272-.832-.272-1.363 0-.507.106-.944.317-1.31.212-.365.499-.66.86-.885a4.04 4.04 0 0 1 1.269-.495 7.08 7.08 0 0 1 1.522-.16 6.397 6.397 0 0 1 1.042.097l.425.08c.121.024.206.042.254.054v-.46c0-.272-.03-.54-.09-.806a1.822 1.822 0 0 0-.327-.708 1.645 1.645 0 0 0-.643-.495c-.272-.124-.625-.186-1.06-.186-.555 0-1.041.038-1.458.115-.417.077-.728.156-.933.239l-.2-1.363c.218-.094.58-.186 1.088-.274a9.605 9.605 0 0 1 1.648-.133zm8.606 8.248c.688 0 1.199-.089 1.53-.266.333-.177.499-.46.499-.85 0-.4-.163-.72-.49-.955-.325-.236-.863-.502-1.612-.797-.362-.141-.71-.286-1.041-.433a3.668 3.668 0 0 1-.86-.522 2.287 2.287 0 0 1-.58-.726c-.146-.283-.218-.631-.218-1.044 0-.814.308-1.46.924-1.938.616-.478 1.455-.717 2.518-.717.266 0 .532.015.797.044.266.03.514.065.743.106a7.7 7.7 0 0 1 .607.133c.175.047.311.089.408.124l-.308 1.416c-.182-.095-.465-.192-.852-.292-.386-.1-.851-.15-1.395-.15-.47 0-.882.09-1.232.274-.35.183-.525.469-.525.858 0 .2.04.378.118.531.078.154.199.292.362.416.163.124.365.239.607.345.241.106.531.218.87.336.446.166.845.328 1.195.487.35.16.65.345.897.558.248.212.438.469.57.77.133.3.2.67.2 1.106 0 .85-.323 1.492-.97 1.929-.646.437-1.566.655-2.762.655-.834 0-1.486-.068-1.957-.204a10.403 10.403 0 0 1-.96-.31l.308-1.415c.193.07.501.177.924.318.423.142.984.213 1.685.213zm5.888 1.186V18.283l1.685-.283v4.708c.314-.118.649-.21 1.005-.274.357-.065.71-.098 1.06-.098.749 0 1.37.104 1.866.31.495.207.89.496 1.187.867.296.372.504.817.625 1.337a7.62 7.62 0 0 1 .181 1.716v5.169h-1.685V26.92c0-.566-.04-1.05-.118-1.451-.078-.401-.208-.726-.39-.973a1.538 1.538 0 0 0-.724-.54c-.302-.112-.676-.168-1.123-.168-.181 0-.368.011-.562.035-.193.024-.377.05-.552.08-.175.03-.332.062-.471.097a2.85 2.85 0 0 0-.3.088v7.647h-1.684z" fill="#FFF" fill-rule="nonzero"/></g></svg>