<svg width="42" height="42" xmlns="http://www.w3.org/2000/svg"><path d="M20.946 0C9.378 0 0 9.378 0 20.946c0 11.569 9.378 20.947 20.946 20.947 11.568 0 20.947-9.378 20.947-20.947C41.893 9.378 32.514 0 20.946 0zm10.626 23.212c.976.953 2.009 1.85 2.885 2.903.388.465.754.947 1.033 1.488.398.772.039 1.618-.652 1.664h-4.292c-1.108.091-1.99-.356-2.733-1.114-.594-.604-1.145-1.249-1.716-1.873a4.013 4.013 0 0 0-.773-.687c-.585-.381-1.093-.264-1.429.347-.341.622-.42 1.31-.452 2.003-.046 1.012-.352 1.276-1.367 1.324-2.17.101-4.228-.228-6.14-1.322-1.689-.964-2.995-2.326-4.133-3.867-2.217-3.006-3.914-6.304-5.44-9.697-.343-.764-.092-1.173.751-1.189 1.4-.027 2.801-.023 4.202-.001.57.009.947.335 1.166.873.757 1.862 1.685 3.634 2.848 5.277.31.438.626.874 1.076 1.183.497.341.876.228 1.11-.327.15-.352.215-.73.248-1.108.111-1.294.125-2.589-.068-3.878-.12-.807-.574-1.328-1.379-1.48-.41-.078-.35-.23-.15-.464.346-.405.67-.655 1.317-.655h4.849c.764.15.935.492 1.04 1.262l.003 5.388c-.009.298.15 1.18.685 1.375.428.142.711-.202.968-.473 1.162-1.234 1.99-2.69 2.733-4.198.327-.664.61-1.352.884-2.041.204-.51.52-.76 1.096-.752l4.669.006c.137 0 .277 0 .413.024.787.135 1.003.474.76 1.241-.384 1.206-1.128 2.21-1.856 3.218-.78 1.078-1.612 2.119-2.384 3.202-.71.99-.654 1.488.228 2.348z" fill="#FFF"/></svg>