<svg id="Layer_1" data-name="Layer 1" xmlns="http://www.w3.org/2000/svg" viewBox="0 0 532.66 596.09"><defs><style>.cls-1{fill:#fff;}</style></defs><title>Uni</title><path id="path-1" class="cls-1" d="M188.43,157.84A375.82,375.82,0,0,1,314.12,2a61.38,61.38,0,0,1,20.5,7.41h0l201,116.41a61.64,61.64,0,0,1,30.74,53.33V412.26a61.64,61.64,0,0,1-30.74,53.33l-31.17,18.05q-77.64,11.82-156-27.79,26.73-8.36,44.92-26.15,34.34-33.58,34.33-97.32V157.84H350.49v168q0,32.5-14.5,50.05T294.2,393.46q-27.29,0-41.79-17.54t-14.49-50.05v-168ZM445.54,517.75,306.91,598c-90.27-67.86-150-171.8-150-287.33q0-3.9.07-7.77,31.86,79.23,102.38,135.93Q345.07,507.82,445.54,517.75Z" transform="translate(-33.67 -1.96)"/><path id="path-3" class="cls-1" d="M206.66,546.36,64.41,464h0a61.64,61.64,0,0,1-30.74-53.33V177.49h0a61.67,61.67,0,0,1,30.74-53.34L260.65,10.49c-89.14,68.66-146.79,177.92-146.79,301C113.86,400.34,149.24,482.35,206.66,546.36Z" transform="translate(-33.67 -1.96)"/></svg>